<mxfile host="Electron" agent="Mozilla/5.0 (Windows NT 10.0; Win64; x64) AppleWebKit/537.36 (KHTML, like Gecko) draw.io/24.7.17 Chrome/128.0.6613.36 Electron/32.0.1 Safari/537.36" version="24.7.17" pages="6">
  <diagram name="Планирование" id="-H_mtQnk-PTXWXPvYvuk">
    <mxGraphModel dx="1104" dy="811" grid="1" gridSize="10" guides="1" tooltips="1" connect="1" arrows="1" fold="1" page="1" pageScale="1" pageWidth="1169" pageHeight="827" math="0" shadow="0">
      <root>
        <mxCell id="0" />
        <mxCell id="1" parent="0" />
        <mxCell id="zA23MoTUsTF4_91t8viU-2" value="MongoDB" style="shape=cylinder3;whiteSpace=wrap;html=1;boundedLbl=1;backgroundOutline=1;size=15;" parent="1" vertex="1">
          <mxGeometry x="560" y="280" width="60" height="80" as="geometry" />
        </mxCell>
        <mxCell id="zA23MoTUsTF4_91t8viU-3" value="pymongo-api" style="rounded=1;whiteSpace=wrap;html=1;" parent="1" vertex="1">
          <mxGeometry x="360" y="290" width="120" height="60" as="geometry" />
        </mxCell>
        <mxCell id="zA23MoTUsTF4_91t8viU-4" style="edgeStyle=orthogonalEdgeStyle;rounded=0;orthogonalLoop=1;jettySize=auto;html=1;exitX=1;exitY=0.5;exitDx=0;exitDy=0;entryX=0;entryY=0.5;entryDx=0;entryDy=0;entryPerimeter=0;" parent="1" source="zA23MoTUsTF4_91t8viU-3" target="zA23MoTUsTF4_91t8viU-2" edge="1">
          <mxGeometry relative="1" as="geometry" />
        </mxCell>
      </root>
    </mxGraphModel>
  </diagram>
  <diagram id="aEatv3vRkDFvMcK9O0Oe" name="Задание 2. Шардирование">
    <mxGraphModel dx="1104" dy="811" grid="1" gridSize="10" guides="1" tooltips="1" connect="1" arrows="1" fold="1" page="1" pageScale="1" pageWidth="827" pageHeight="1169" math="0" shadow="0">
      <root>
        <mxCell id="0" />
        <mxCell id="1" parent="0" />
        <mxCell id="zbb0QbI5kPFFsZz03Zg3-1" value="MongoDB2" style="shape=cylinder3;whiteSpace=wrap;html=1;boundedLbl=1;backgroundOutline=1;size=15;" vertex="1" parent="1">
          <mxGeometry x="430" y="470" width="60" height="80" as="geometry" />
        </mxCell>
        <mxCell id="zbb0QbI5kPFFsZz03Zg3-12" value="" style="edgeStyle=orthogonalEdgeStyle;rounded=0;orthogonalLoop=1;jettySize=auto;html=1;" edge="1" parent="1" source="zbb0QbI5kPFFsZz03Zg3-2" target="zbb0QbI5kPFFsZz03Zg3-5">
          <mxGeometry relative="1" as="geometry" />
        </mxCell>
        <mxCell id="zbb0QbI5kPFFsZz03Zg3-2" value="pymongo-api" style="rounded=1;whiteSpace=wrap;html=1;" vertex="1" parent="1">
          <mxGeometry x="340" y="170" width="120" height="60" as="geometry" />
        </mxCell>
        <mxCell id="zbb0QbI5kPFFsZz03Zg3-4" value="MongoDB1" style="shape=cylinder3;whiteSpace=wrap;html=1;boundedLbl=1;backgroundOutline=1;size=15;" vertex="1" parent="1">
          <mxGeometry x="310" y="470" width="60" height="80" as="geometry" />
        </mxCell>
        <mxCell id="zbb0QbI5kPFFsZz03Zg3-8" style="edgeStyle=orthogonalEdgeStyle;rounded=0;orthogonalLoop=1;jettySize=auto;html=1;" edge="1" parent="1" source="zbb0QbI5kPFFsZz03Zg3-5" target="zbb0QbI5kPFFsZz03Zg3-1">
          <mxGeometry relative="1" as="geometry">
            <Array as="points">
              <mxPoint x="440" y="400" />
              <mxPoint x="460" y="400" />
            </Array>
          </mxGeometry>
        </mxCell>
        <mxCell id="zbb0QbI5kPFFsZz03Zg3-9" style="edgeStyle=orthogonalEdgeStyle;rounded=0;orthogonalLoop=1;jettySize=auto;html=1;" edge="1" parent="1" source="zbb0QbI5kPFFsZz03Zg3-5" target="zbb0QbI5kPFFsZz03Zg3-6">
          <mxGeometry relative="1" as="geometry" />
        </mxCell>
        <mxCell id="zbb0QbI5kPFFsZz03Zg3-5" value="роутер" style="rounded=1;whiteSpace=wrap;html=1;" vertex="1" parent="1">
          <mxGeometry x="340" y="270" width="120" height="60" as="geometry" />
        </mxCell>
        <mxCell id="zbb0QbI5kPFFsZz03Zg3-6" value="сервер конфигурации" style="rounded=1;whiteSpace=wrap;html=1;" vertex="1" parent="1">
          <mxGeometry x="160" y="270" width="120" height="60" as="geometry" />
        </mxCell>
        <mxCell id="zbb0QbI5kPFFsZz03Zg3-7" style="edgeStyle=orthogonalEdgeStyle;rounded=0;orthogonalLoop=1;jettySize=auto;html=1;entryX=0.5;entryY=0;entryDx=0;entryDy=0;entryPerimeter=0;" edge="1" parent="1" source="zbb0QbI5kPFFsZz03Zg3-5" target="zbb0QbI5kPFFsZz03Zg3-4">
          <mxGeometry relative="1" as="geometry">
            <Array as="points">
              <mxPoint x="360" y="400" />
              <mxPoint x="340" y="400" />
              <mxPoint x="340" y="470" />
            </Array>
          </mxGeometry>
        </mxCell>
        <mxCell id="zbb0QbI5kPFFsZz03Zg3-10" style="edgeStyle=orthogonalEdgeStyle;rounded=0;orthogonalLoop=1;jettySize=auto;html=1;entryX=0.678;entryY=1.033;entryDx=0;entryDy=0;entryPerimeter=0;" edge="1" parent="1" source="zbb0QbI5kPFFsZz03Zg3-4" target="zbb0QbI5kPFFsZz03Zg3-6">
          <mxGeometry relative="1" as="geometry" />
        </mxCell>
        <mxCell id="zbb0QbI5kPFFsZz03Zg3-11" style="edgeStyle=orthogonalEdgeStyle;rounded=0;orthogonalLoop=1;jettySize=auto;html=1;entryX=0.378;entryY=1.022;entryDx=0;entryDy=0;entryPerimeter=0;" edge="1" parent="1" source="zbb0QbI5kPFFsZz03Zg3-1" target="zbb0QbI5kPFFsZz03Zg3-6">
          <mxGeometry relative="1" as="geometry">
            <Array as="points">
              <mxPoint x="460" y="600" />
              <mxPoint x="205" y="600" />
            </Array>
          </mxGeometry>
        </mxCell>
      </root>
    </mxGraphModel>
  </diagram>
  <diagram id="K-v3egZM66Jspl0jNhWk" name="Задание 3. Репликация">
    <mxGraphModel dx="1104" dy="811" grid="1" gridSize="10" guides="1" tooltips="1" connect="1" arrows="1" fold="1" page="1" pageScale="1" pageWidth="827" pageHeight="1169" math="0" shadow="0">
      <root>
        <mxCell id="0" />
        <mxCell id="1" parent="0" />
        <mxCell id="dV-uEQ60B7diLhmi4Ngz-20" value="" style="rounded=0;whiteSpace=wrap;html=1;" vertex="1" parent="1">
          <mxGeometry x="30" y="385" width="430" height="295" as="geometry" />
        </mxCell>
        <mxCell id="dV-uEQ60B7diLhmi4Ngz-2" value="" style="edgeStyle=orthogonalEdgeStyle;rounded=0;orthogonalLoop=1;jettySize=auto;html=1;" edge="1" parent="1" source="dV-uEQ60B7diLhmi4Ngz-3" target="dV-uEQ60B7diLhmi4Ngz-7">
          <mxGeometry relative="1" as="geometry" />
        </mxCell>
        <mxCell id="dV-uEQ60B7diLhmi4Ngz-3" value="pymongo-api" style="rounded=1;whiteSpace=wrap;html=1;" vertex="1" parent="1">
          <mxGeometry x="340" y="170" width="120" height="60" as="geometry" />
        </mxCell>
        <mxCell id="dV-uEQ60B7diLhmi4Ngz-6" style="edgeStyle=orthogonalEdgeStyle;rounded=0;orthogonalLoop=1;jettySize=auto;html=1;fillColor=#60a917;strokeColor=#2D7600;" edge="1" parent="1" source="dV-uEQ60B7diLhmi4Ngz-7" target="dV-uEQ60B7diLhmi4Ngz-8">
          <mxGeometry relative="1" as="geometry" />
        </mxCell>
        <mxCell id="dV-uEQ60B7diLhmi4Ngz-7" value="mongos/router" style="rounded=1;whiteSpace=wrap;html=1;" vertex="1" parent="1">
          <mxGeometry x="340" y="270" width="120" height="60" as="geometry" />
        </mxCell>
        <mxCell id="dV-uEQ60B7diLhmi4Ngz-8" value="config" style="rounded=1;whiteSpace=wrap;html=1;" vertex="1" parent="1">
          <mxGeometry x="100" y="270" width="120" height="60" as="geometry" />
        </mxCell>
        <mxCell id="dV-uEQ60B7diLhmi4Ngz-21" style="edgeStyle=orthogonalEdgeStyle;rounded=0;orthogonalLoop=1;jettySize=auto;html=1;fillColor=#1ba1e2;strokeColor=#006EAF;" edge="1" parent="1" source="dV-uEQ60B7diLhmi4Ngz-14" target="dV-uEQ60B7diLhmi4Ngz-16">
          <mxGeometry relative="1" as="geometry" />
        </mxCell>
        <mxCell id="CYHpSH15TtG3RQxc6X56-2" style="edgeStyle=orthogonalEdgeStyle;rounded=0;orthogonalLoop=1;jettySize=auto;html=1;entryX=0.5;entryY=1;entryDx=0;entryDy=0;exitX=0.145;exitY=0;exitDx=0;exitDy=4.35;exitPerimeter=0;fillColor=#d80073;strokeColor=#A50040;" edge="1" parent="1" source="dV-uEQ60B7diLhmi4Ngz-14" target="dV-uEQ60B7diLhmi4Ngz-8">
          <mxGeometry relative="1" as="geometry">
            <Array as="points">
              <mxPoint x="230" y="429" />
              <mxPoint x="230" y="378" />
              <mxPoint x="160" y="378" />
            </Array>
          </mxGeometry>
        </mxCell>
        <mxCell id="dV-uEQ60B7diLhmi4Ngz-14" value="MongoDB1 shard1&lt;br&gt;Master" style="shape=cylinder3;whiteSpace=wrap;html=1;boundedLbl=1;backgroundOutline=1;size=15;" vertex="1" parent="1">
          <mxGeometry x="220" y="425" width="90" height="110" as="geometry" />
        </mxCell>
        <mxCell id="dV-uEQ60B7diLhmi4Ngz-15" value="MongoDB1 shard1&lt;br&gt;Slave" style="shape=cylinder3;whiteSpace=wrap;html=1;boundedLbl=1;backgroundOutline=1;size=15;" vertex="1" parent="1">
          <mxGeometry x="330" y="570" width="60" height="80" as="geometry" />
        </mxCell>
        <mxCell id="dV-uEQ60B7diLhmi4Ngz-16" value="MongoDB1 shard1&lt;br&gt;Slave" style="shape=cylinder3;whiteSpace=wrap;html=1;boundedLbl=1;backgroundOutline=1;size=15;" vertex="1" parent="1">
          <mxGeometry x="150" y="570" width="60" height="80" as="geometry" />
        </mxCell>
        <mxCell id="dV-uEQ60B7diLhmi4Ngz-18" value="&lt;h1 style=&quot;margin-top: 0px;&quot;&gt;Cluster 1&lt;/h1&gt;&lt;h1 style=&quot;margin-top: 0px;&quot;&gt;&lt;span style=&quot;background-color: initial; font-size: 12px; font-weight: normal;&quot;&gt;имеет 3 реплики&lt;/span&gt;&lt;/h1&gt;" style="text;html=1;whiteSpace=wrap;overflow=hidden;rounded=0;" vertex="1" parent="1">
          <mxGeometry x="40" y="420" width="180" height="120" as="geometry" />
        </mxCell>
        <mxCell id="dV-uEQ60B7diLhmi4Ngz-22" style="edgeStyle=orthogonalEdgeStyle;rounded=0;orthogonalLoop=1;jettySize=auto;html=1;entryX=0.5;entryY=0;entryDx=0;entryDy=0;entryPerimeter=0;fillColor=#1ba1e2;strokeColor=#006EAF;" edge="1" parent="1" source="dV-uEQ60B7diLhmi4Ngz-14" target="dV-uEQ60B7diLhmi4Ngz-15">
          <mxGeometry relative="1" as="geometry" />
        </mxCell>
        <mxCell id="dV-uEQ60B7diLhmi4Ngz-23" style="edgeStyle=orthogonalEdgeStyle;rounded=0;orthogonalLoop=1;jettySize=auto;html=1;entryX=0.411;entryY=1.021;entryDx=0;entryDy=0;entryPerimeter=0;fillColor=#1ba1e2;strokeColor=#006EAF;" edge="1" parent="1" source="dV-uEQ60B7diLhmi4Ngz-16" target="dV-uEQ60B7diLhmi4Ngz-14">
          <mxGeometry relative="1" as="geometry" />
        </mxCell>
        <mxCell id="dV-uEQ60B7diLhmi4Ngz-24" style="edgeStyle=orthogonalEdgeStyle;rounded=0;orthogonalLoop=1;jettySize=auto;html=1;entryX=0.633;entryY=0.997;entryDx=0;entryDy=0;entryPerimeter=0;fillColor=#1ba1e2;strokeColor=#006EAF;" edge="1" parent="1" source="dV-uEQ60B7diLhmi4Ngz-15" target="dV-uEQ60B7diLhmi4Ngz-14">
          <mxGeometry relative="1" as="geometry" />
        </mxCell>
        <mxCell id="dV-uEQ60B7diLhmi4Ngz-25" value="" style="rounded=0;whiteSpace=wrap;html=1;" vertex="1" parent="1">
          <mxGeometry x="490" y="385" width="430" height="295" as="geometry" />
        </mxCell>
        <mxCell id="dV-uEQ60B7diLhmi4Ngz-26" style="edgeStyle=orthogonalEdgeStyle;rounded=0;orthogonalLoop=1;jettySize=auto;html=1;fillColor=#1ba1e2;strokeColor=#006EAF;" edge="1" parent="1" source="dV-uEQ60B7diLhmi4Ngz-27" target="dV-uEQ60B7diLhmi4Ngz-29">
          <mxGeometry relative="1" as="geometry" />
        </mxCell>
        <mxCell id="CYHpSH15TtG3RQxc6X56-3" style="edgeStyle=orthogonalEdgeStyle;rounded=0;orthogonalLoop=1;jettySize=auto;html=1;exitX=0.145;exitY=0;exitDx=0;exitDy=4.35;exitPerimeter=0;fillColor=#d80073;strokeColor=#A50040;" edge="1" parent="1" source="dV-uEQ60B7diLhmi4Ngz-27">
          <mxGeometry relative="1" as="geometry">
            <mxPoint x="160" y="330" as="targetPoint" />
            <Array as="points">
              <mxPoint x="693" y="350" />
              <mxPoint x="160" y="350" />
            </Array>
          </mxGeometry>
        </mxCell>
        <mxCell id="dV-uEQ60B7diLhmi4Ngz-27" value="MongoDB2 shard2&lt;br&gt;Master" style="shape=cylinder3;whiteSpace=wrap;html=1;boundedLbl=1;backgroundOutline=1;size=15;" vertex="1" parent="1">
          <mxGeometry x="680" y="425" width="90" height="110" as="geometry" />
        </mxCell>
        <mxCell id="dV-uEQ60B7diLhmi4Ngz-28" value="MongoDB2 shard2&lt;br&gt;Slave" style="shape=cylinder3;whiteSpace=wrap;html=1;boundedLbl=1;backgroundOutline=1;size=15;" vertex="1" parent="1">
          <mxGeometry x="790" y="570" width="60" height="80" as="geometry" />
        </mxCell>
        <mxCell id="dV-uEQ60B7diLhmi4Ngz-29" value="MongoDB2 shard2&lt;br&gt;Slave" style="shape=cylinder3;whiteSpace=wrap;html=1;boundedLbl=1;backgroundOutline=1;size=15;" vertex="1" parent="1">
          <mxGeometry x="610" y="570" width="60" height="80" as="geometry" />
        </mxCell>
        <mxCell id="dV-uEQ60B7diLhmi4Ngz-30" value="&lt;h1 style=&quot;margin-top: 0px;&quot;&gt;Cluster 2&lt;/h1&gt;&lt;div&gt;&lt;span style=&quot;background-color: initial;&quot;&gt;имеет 3 реплики&lt;/span&gt;&lt;br&gt;&lt;/div&gt;" style="text;html=1;whiteSpace=wrap;overflow=hidden;rounded=0;" vertex="1" parent="1">
          <mxGeometry x="500" y="420" width="180" height="120" as="geometry" />
        </mxCell>
        <mxCell id="dV-uEQ60B7diLhmi4Ngz-31" style="edgeStyle=orthogonalEdgeStyle;rounded=0;orthogonalLoop=1;jettySize=auto;html=1;entryX=0.5;entryY=0;entryDx=0;entryDy=0;entryPerimeter=0;fillColor=#1ba1e2;strokeColor=#006EAF;" edge="1" parent="1" source="dV-uEQ60B7diLhmi4Ngz-27" target="dV-uEQ60B7diLhmi4Ngz-28">
          <mxGeometry relative="1" as="geometry" />
        </mxCell>
        <mxCell id="dV-uEQ60B7diLhmi4Ngz-32" style="edgeStyle=orthogonalEdgeStyle;rounded=0;orthogonalLoop=1;jettySize=auto;html=1;entryX=0.411;entryY=1.021;entryDx=0;entryDy=0;entryPerimeter=0;fillColor=#1ba1e2;strokeColor=#006EAF;" edge="1" parent="1" source="dV-uEQ60B7diLhmi4Ngz-29" target="dV-uEQ60B7diLhmi4Ngz-27">
          <mxGeometry relative="1" as="geometry" />
        </mxCell>
        <mxCell id="dV-uEQ60B7diLhmi4Ngz-33" style="edgeStyle=orthogonalEdgeStyle;rounded=0;orthogonalLoop=1;jettySize=auto;html=1;entryX=0.633;entryY=0.997;entryDx=0;entryDy=0;entryPerimeter=0;fillColor=#1ba1e2;strokeColor=#006EAF;" edge="1" parent="1" source="dV-uEQ60B7diLhmi4Ngz-28" target="dV-uEQ60B7diLhmi4Ngz-27">
          <mxGeometry relative="1" as="geometry" />
        </mxCell>
        <mxCell id="CYHpSH15TtG3RQxc6X56-1" style="edgeStyle=orthogonalEdgeStyle;rounded=0;orthogonalLoop=1;jettySize=auto;html=1;entryX=0.5;entryY=0;entryDx=0;entryDy=0;entryPerimeter=0;fillColor=#60a917;strokeColor=#2D7600;" edge="1" parent="1" source="dV-uEQ60B7diLhmi4Ngz-7" target="dV-uEQ60B7diLhmi4Ngz-14">
          <mxGeometry relative="1" as="geometry" />
        </mxCell>
        <mxCell id="CYHpSH15TtG3RQxc6X56-5" style="edgeStyle=orthogonalEdgeStyle;rounded=0;orthogonalLoop=1;jettySize=auto;html=1;entryX=1;entryY=0;entryDx=0;entryDy=35;entryPerimeter=0;fillColor=#60a917;strokeColor=#2D7600;" edge="1" parent="1" source="dV-uEQ60B7diLhmi4Ngz-7" target="dV-uEQ60B7diLhmi4Ngz-14">
          <mxGeometry relative="1" as="geometry">
            <Array as="points">
              <mxPoint x="380" y="460" />
            </Array>
          </mxGeometry>
        </mxCell>
        <mxCell id="CYHpSH15TtG3RQxc6X56-6" style="edgeStyle=orthogonalEdgeStyle;rounded=0;orthogonalLoop=1;jettySize=auto;html=1;entryX=0;entryY=0;entryDx=0;entryDy=35;entryPerimeter=0;fillColor=#60a917;strokeColor=#2D7600;" edge="1" parent="1" source="dV-uEQ60B7diLhmi4Ngz-7" target="dV-uEQ60B7diLhmi4Ngz-27">
          <mxGeometry relative="1" as="geometry">
            <Array as="points">
              <mxPoint x="440" y="460" />
            </Array>
          </mxGeometry>
        </mxCell>
      </root>
    </mxGraphModel>
  </diagram>
  <diagram id="LJo_0pfFqLulWk8vQv2F" name="Задание 4. Кэширование">
    <mxGraphModel dx="1104" dy="811" grid="1" gridSize="10" guides="1" tooltips="1" connect="1" arrows="1" fold="1" page="1" pageScale="1" pageWidth="827" pageHeight="1169" math="0" shadow="0">
      <root>
        <mxCell id="0" />
        <mxCell id="1" parent="0" />
        <mxCell id="xSxDf9-6nVv0hgFfdWhZ-1" value="" style="rounded=0;whiteSpace=wrap;html=1;" vertex="1" parent="1">
          <mxGeometry x="30" y="385" width="430" height="295" as="geometry" />
        </mxCell>
        <mxCell id="xSxDf9-6nVv0hgFfdWhZ-2" value="" style="edgeStyle=orthogonalEdgeStyle;rounded=0;orthogonalLoop=1;jettySize=auto;html=1;" edge="1" parent="1" source="xSxDf9-6nVv0hgFfdWhZ-3" target="xSxDf9-6nVv0hgFfdWhZ-5">
          <mxGeometry relative="1" as="geometry" />
        </mxCell>
        <mxCell id="xSxDf9-6nVv0hgFfdWhZ-3" value="pymongo-api" style="rounded=1;whiteSpace=wrap;html=1;" vertex="1" parent="1">
          <mxGeometry x="340" y="20" width="120" height="60" as="geometry" />
        </mxCell>
        <mxCell id="xSxDf9-6nVv0hgFfdWhZ-4" style="edgeStyle=orthogonalEdgeStyle;rounded=0;orthogonalLoop=1;jettySize=auto;html=1;fillColor=#60a917;strokeColor=#2D7600;" edge="1" parent="1" source="xSxDf9-6nVv0hgFfdWhZ-5" target="xSxDf9-6nVv0hgFfdWhZ-6">
          <mxGeometry relative="1" as="geometry" />
        </mxCell>
        <mxCell id="xSxDf9-6nVv0hgFfdWhZ-5" value="mongos/router" style="rounded=1;whiteSpace=wrap;html=1;" vertex="1" parent="1">
          <mxGeometry x="340" y="270" width="120" height="60" as="geometry" />
        </mxCell>
        <mxCell id="xSxDf9-6nVv0hgFfdWhZ-6" value="config" style="rounded=1;whiteSpace=wrap;html=1;" vertex="1" parent="1">
          <mxGeometry x="100" y="270" width="120" height="60" as="geometry" />
        </mxCell>
        <mxCell id="xSxDf9-6nVv0hgFfdWhZ-7" style="edgeStyle=orthogonalEdgeStyle;rounded=0;orthogonalLoop=1;jettySize=auto;html=1;fillColor=#1ba1e2;strokeColor=#006EAF;" edge="1" parent="1" source="xSxDf9-6nVv0hgFfdWhZ-9" target="xSxDf9-6nVv0hgFfdWhZ-11">
          <mxGeometry relative="1" as="geometry" />
        </mxCell>
        <mxCell id="xSxDf9-6nVv0hgFfdWhZ-8" style="edgeStyle=orthogonalEdgeStyle;rounded=0;orthogonalLoop=1;jettySize=auto;html=1;entryX=0.5;entryY=1;entryDx=0;entryDy=0;exitX=0.145;exitY=0;exitDx=0;exitDy=4.35;exitPerimeter=0;fillColor=#d80073;strokeColor=#A50040;" edge="1" parent="1" source="xSxDf9-6nVv0hgFfdWhZ-9" target="xSxDf9-6nVv0hgFfdWhZ-6">
          <mxGeometry relative="1" as="geometry">
            <Array as="points">
              <mxPoint x="230" y="429" />
              <mxPoint x="230" y="378" />
              <mxPoint x="160" y="378" />
            </Array>
          </mxGeometry>
        </mxCell>
        <mxCell id="xSxDf9-6nVv0hgFfdWhZ-9" value="MongoDB1 shard1&lt;br&gt;Master" style="shape=cylinder3;whiteSpace=wrap;html=1;boundedLbl=1;backgroundOutline=1;size=15;" vertex="1" parent="1">
          <mxGeometry x="220" y="425" width="90" height="110" as="geometry" />
        </mxCell>
        <mxCell id="xSxDf9-6nVv0hgFfdWhZ-10" value="MongoDB1 shard1&lt;br&gt;Slave" style="shape=cylinder3;whiteSpace=wrap;html=1;boundedLbl=1;backgroundOutline=1;size=15;" vertex="1" parent="1">
          <mxGeometry x="330" y="570" width="60" height="80" as="geometry" />
        </mxCell>
        <mxCell id="xSxDf9-6nVv0hgFfdWhZ-11" value="MongoDB1 shard1&lt;br&gt;Slave" style="shape=cylinder3;whiteSpace=wrap;html=1;boundedLbl=1;backgroundOutline=1;size=15;" vertex="1" parent="1">
          <mxGeometry x="150" y="570" width="60" height="80" as="geometry" />
        </mxCell>
        <mxCell id="xSxDf9-6nVv0hgFfdWhZ-12" value="&lt;h1 style=&quot;margin-top: 0px;&quot;&gt;Cluster 1&lt;/h1&gt;&lt;h1 style=&quot;margin-top: 0px;&quot;&gt;&lt;span style=&quot;background-color: initial; font-size: 12px; font-weight: normal;&quot;&gt;имеет 3 реплики&lt;/span&gt;&lt;/h1&gt;" style="text;html=1;whiteSpace=wrap;overflow=hidden;rounded=0;" vertex="1" parent="1">
          <mxGeometry x="40" y="420" width="180" height="120" as="geometry" />
        </mxCell>
        <mxCell id="xSxDf9-6nVv0hgFfdWhZ-13" style="edgeStyle=orthogonalEdgeStyle;rounded=0;orthogonalLoop=1;jettySize=auto;html=1;entryX=0.5;entryY=0;entryDx=0;entryDy=0;entryPerimeter=0;fillColor=#1ba1e2;strokeColor=#006EAF;" edge="1" parent="1" source="xSxDf9-6nVv0hgFfdWhZ-9" target="xSxDf9-6nVv0hgFfdWhZ-10">
          <mxGeometry relative="1" as="geometry" />
        </mxCell>
        <mxCell id="xSxDf9-6nVv0hgFfdWhZ-14" style="edgeStyle=orthogonalEdgeStyle;rounded=0;orthogonalLoop=1;jettySize=auto;html=1;entryX=0.411;entryY=1.021;entryDx=0;entryDy=0;entryPerimeter=0;fillColor=#1ba1e2;strokeColor=#006EAF;" edge="1" parent="1" source="xSxDf9-6nVv0hgFfdWhZ-11" target="xSxDf9-6nVv0hgFfdWhZ-9">
          <mxGeometry relative="1" as="geometry" />
        </mxCell>
        <mxCell id="xSxDf9-6nVv0hgFfdWhZ-15" style="edgeStyle=orthogonalEdgeStyle;rounded=0;orthogonalLoop=1;jettySize=auto;html=1;entryX=0.633;entryY=0.997;entryDx=0;entryDy=0;entryPerimeter=0;fillColor=#1ba1e2;strokeColor=#006EAF;" edge="1" parent="1" source="xSxDf9-6nVv0hgFfdWhZ-10" target="xSxDf9-6nVv0hgFfdWhZ-9">
          <mxGeometry relative="1" as="geometry" />
        </mxCell>
        <mxCell id="xSxDf9-6nVv0hgFfdWhZ-16" value="" style="rounded=0;whiteSpace=wrap;html=1;" vertex="1" parent="1">
          <mxGeometry x="490" y="385" width="430" height="295" as="geometry" />
        </mxCell>
        <mxCell id="xSxDf9-6nVv0hgFfdWhZ-17" style="edgeStyle=orthogonalEdgeStyle;rounded=0;orthogonalLoop=1;jettySize=auto;html=1;fillColor=#1ba1e2;strokeColor=#006EAF;" edge="1" parent="1" source="xSxDf9-6nVv0hgFfdWhZ-19" target="xSxDf9-6nVv0hgFfdWhZ-21">
          <mxGeometry relative="1" as="geometry" />
        </mxCell>
        <mxCell id="xSxDf9-6nVv0hgFfdWhZ-18" style="edgeStyle=orthogonalEdgeStyle;rounded=0;orthogonalLoop=1;jettySize=auto;html=1;exitX=0.145;exitY=0;exitDx=0;exitDy=4.35;exitPerimeter=0;fillColor=#d80073;strokeColor=#A50040;" edge="1" parent="1" source="xSxDf9-6nVv0hgFfdWhZ-19">
          <mxGeometry relative="1" as="geometry">
            <mxPoint x="160" y="330" as="targetPoint" />
            <Array as="points">
              <mxPoint x="693" y="350" />
              <mxPoint x="160" y="350" />
            </Array>
          </mxGeometry>
        </mxCell>
        <mxCell id="xSxDf9-6nVv0hgFfdWhZ-19" value="MongoDB2 shard2&lt;br&gt;Master" style="shape=cylinder3;whiteSpace=wrap;html=1;boundedLbl=1;backgroundOutline=1;size=15;" vertex="1" parent="1">
          <mxGeometry x="680" y="425" width="90" height="110" as="geometry" />
        </mxCell>
        <mxCell id="xSxDf9-6nVv0hgFfdWhZ-20" value="MongoDB2 shard2&lt;br&gt;Slave" style="shape=cylinder3;whiteSpace=wrap;html=1;boundedLbl=1;backgroundOutline=1;size=15;" vertex="1" parent="1">
          <mxGeometry x="790" y="570" width="60" height="80" as="geometry" />
        </mxCell>
        <mxCell id="xSxDf9-6nVv0hgFfdWhZ-21" value="MongoDB2 shard2&lt;br&gt;Slave" style="shape=cylinder3;whiteSpace=wrap;html=1;boundedLbl=1;backgroundOutline=1;size=15;" vertex="1" parent="1">
          <mxGeometry x="610" y="570" width="60" height="80" as="geometry" />
        </mxCell>
        <mxCell id="xSxDf9-6nVv0hgFfdWhZ-22" value="&lt;h1 style=&quot;margin-top: 0px;&quot;&gt;Cluster 2&lt;/h1&gt;&lt;div&gt;&lt;span style=&quot;background-color: initial;&quot;&gt;имеет 3 реплики&lt;/span&gt;&lt;br&gt;&lt;/div&gt;" style="text;html=1;whiteSpace=wrap;overflow=hidden;rounded=0;" vertex="1" parent="1">
          <mxGeometry x="500" y="420" width="180" height="120" as="geometry" />
        </mxCell>
        <mxCell id="xSxDf9-6nVv0hgFfdWhZ-23" style="edgeStyle=orthogonalEdgeStyle;rounded=0;orthogonalLoop=1;jettySize=auto;html=1;entryX=0.5;entryY=0;entryDx=0;entryDy=0;entryPerimeter=0;fillColor=#1ba1e2;strokeColor=#006EAF;" edge="1" parent="1" source="xSxDf9-6nVv0hgFfdWhZ-19" target="xSxDf9-6nVv0hgFfdWhZ-20">
          <mxGeometry relative="1" as="geometry" />
        </mxCell>
        <mxCell id="xSxDf9-6nVv0hgFfdWhZ-24" style="edgeStyle=orthogonalEdgeStyle;rounded=0;orthogonalLoop=1;jettySize=auto;html=1;entryX=0.411;entryY=1.021;entryDx=0;entryDy=0;entryPerimeter=0;fillColor=#1ba1e2;strokeColor=#006EAF;" edge="1" parent="1" source="xSxDf9-6nVv0hgFfdWhZ-21" target="xSxDf9-6nVv0hgFfdWhZ-19">
          <mxGeometry relative="1" as="geometry" />
        </mxCell>
        <mxCell id="xSxDf9-6nVv0hgFfdWhZ-25" style="edgeStyle=orthogonalEdgeStyle;rounded=0;orthogonalLoop=1;jettySize=auto;html=1;entryX=0.633;entryY=0.997;entryDx=0;entryDy=0;entryPerimeter=0;fillColor=#1ba1e2;strokeColor=#006EAF;" edge="1" parent="1" source="xSxDf9-6nVv0hgFfdWhZ-20" target="xSxDf9-6nVv0hgFfdWhZ-19">
          <mxGeometry relative="1" as="geometry" />
        </mxCell>
        <mxCell id="xSxDf9-6nVv0hgFfdWhZ-26" style="edgeStyle=orthogonalEdgeStyle;rounded=0;orthogonalLoop=1;jettySize=auto;html=1;entryX=0.5;entryY=0;entryDx=0;entryDy=0;entryPerimeter=0;fillColor=#60a917;strokeColor=#2D7600;" edge="1" parent="1" source="xSxDf9-6nVv0hgFfdWhZ-5" target="xSxDf9-6nVv0hgFfdWhZ-9">
          <mxGeometry relative="1" as="geometry" />
        </mxCell>
        <mxCell id="xSxDf9-6nVv0hgFfdWhZ-27" style="edgeStyle=orthogonalEdgeStyle;rounded=0;orthogonalLoop=1;jettySize=auto;html=1;entryX=1;entryY=0;entryDx=0;entryDy=35;entryPerimeter=0;fillColor=#60a917;strokeColor=#2D7600;" edge="1" parent="1" source="xSxDf9-6nVv0hgFfdWhZ-5" target="xSxDf9-6nVv0hgFfdWhZ-9">
          <mxGeometry relative="1" as="geometry">
            <Array as="points">
              <mxPoint x="380" y="460" />
            </Array>
          </mxGeometry>
        </mxCell>
        <mxCell id="xSxDf9-6nVv0hgFfdWhZ-28" style="edgeStyle=orthogonalEdgeStyle;rounded=0;orthogonalLoop=1;jettySize=auto;html=1;entryX=0;entryY=0;entryDx=0;entryDy=35;entryPerimeter=0;fillColor=#60a917;strokeColor=#2D7600;" edge="1" parent="1" source="xSxDf9-6nVv0hgFfdWhZ-5" target="xSxDf9-6nVv0hgFfdWhZ-19">
          <mxGeometry relative="1" as="geometry">
            <Array as="points">
              <mxPoint x="440" y="460" />
            </Array>
          </mxGeometry>
        </mxCell>
        <mxCell id="xSxDf9-6nVv0hgFfdWhZ-29" value="Reiis Cache&lt;div&gt;&lt;br&gt;&lt;/div&gt;" style="shape=cylinder3;whiteSpace=wrap;html=1;boundedLbl=1;backgroundOutline=1;size=15;" vertex="1" parent="1">
          <mxGeometry x="480" y="130" width="90" height="110" as="geometry" />
        </mxCell>
        <mxCell id="xSxDf9-6nVv0hgFfdWhZ-32" style="edgeStyle=orthogonalEdgeStyle;rounded=0;orthogonalLoop=1;jettySize=auto;html=1;entryX=0.5;entryY=0;entryDx=0;entryDy=0;entryPerimeter=0;startArrow=classic;startFill=1;" edge="1" parent="1" source="xSxDf9-6nVv0hgFfdWhZ-3" target="xSxDf9-6nVv0hgFfdWhZ-29">
          <mxGeometry relative="1" as="geometry" />
        </mxCell>
        <mxCell id="xSxDf9-6nVv0hgFfdWhZ-34" value="Запрос данных&lt;div&gt;Если данные есть в кеше&amp;nbsp; - возвращаем их&lt;/div&gt;&lt;div&gt;&lt;br&gt;&lt;/div&gt;&lt;div&gt;если данных в кеше нет - то запрашиваем из mongo кластера&lt;/div&gt;&lt;div&gt;&lt;br&gt;&lt;/div&gt;&lt;div&gt;после получения из mongo-кластера - записываем в кеш обновленные данные&lt;/div&gt;" style="shape=note;whiteSpace=wrap;html=1;backgroundOutline=1;darkOpacity=0.05;align=left;" vertex="1" parent="1">
          <mxGeometry x="580" y="60" width="230" height="190" as="geometry" />
        </mxCell>
        <mxCell id="xSxDf9-6nVv0hgFfdWhZ-35" value="Возможна реализация с актуализацией кеша через etl процесс из mongodb ( предзаполнение и инициализация горячего кеша)&lt;div&gt;&lt;br&gt;&lt;/div&gt;&lt;div&gt;Возможна реализация redis кластера с репликацией (gossip протокол)&lt;/div&gt;" style="shape=note;whiteSpace=wrap;html=1;backgroundOutline=1;darkOpacity=0.05;align=left;" vertex="1" parent="1">
          <mxGeometry x="827" y="60" width="230" height="190" as="geometry" />
        </mxCell>
      </root>
    </mxGraphModel>
  </diagram>
  <diagram id="UjTIhfSTC3fvPOBJ0cal" name="Задание 5. Service Discovery и балансировка с API Gateway">
    <mxGraphModel dx="1577" dy="2328" grid="1" gridSize="10" guides="1" tooltips="1" connect="1" arrows="1" fold="1" page="1" pageScale="1" pageWidth="827" pageHeight="1169" math="0" shadow="0">
      <root>
        <mxCell id="0" />
        <mxCell id="1" parent="0" />
        <mxCell id="V-6NSnank7AXDACiyt_C-48" style="edgeStyle=orthogonalEdgeStyle;rounded=0;orthogonalLoop=1;jettySize=auto;html=1;entryX=0.5;entryY=1;entryDx=0;entryDy=0;" edge="1" parent="1" source="V-6NSnank7AXDACiyt_C-35" target="V-6NSnank7AXDACiyt_C-41">
          <mxGeometry relative="1" as="geometry" />
        </mxCell>
        <mxCell id="V-6NSnank7AXDACiyt_C-49" value="регистрация сервисов" style="edgeLabel;html=1;align=center;verticalAlign=middle;resizable=0;points=[];" vertex="1" connectable="0" parent="V-6NSnank7AXDACiyt_C-48">
          <mxGeometry x="-0.5086" relative="1" as="geometry">
            <mxPoint as="offset" />
          </mxGeometry>
        </mxCell>
        <mxCell id="V-6NSnank7AXDACiyt_C-35" value="" style="rounded=0;whiteSpace=wrap;html=1;" vertex="1" parent="1">
          <mxGeometry x="140" y="-70" width="380" height="145" as="geometry" />
        </mxCell>
        <mxCell id="V-6NSnank7AXDACiyt_C-1" value="" style="rounded=0;whiteSpace=wrap;html=1;" vertex="1" parent="1">
          <mxGeometry x="30" y="385" width="430" height="295" as="geometry" />
        </mxCell>
        <mxCell id="V-6NSnank7AXDACiyt_C-2" value="" style="edgeStyle=orthogonalEdgeStyle;rounded=0;orthogonalLoop=1;jettySize=auto;html=1;exitX=0.475;exitY=0.997;exitDx=0;exitDy=0;exitPerimeter=0;" edge="1" parent="1" source="V-6NSnank7AXDACiyt_C-35" target="V-6NSnank7AXDACiyt_C-5">
          <mxGeometry relative="1" as="geometry" />
        </mxCell>
        <mxCell id="V-6NSnank7AXDACiyt_C-3" value="pymongo-api" style="rounded=1;whiteSpace=wrap;html=1;" vertex="1" parent="1">
          <mxGeometry x="340" y="-30" width="120" height="60" as="geometry" />
        </mxCell>
        <mxCell id="V-6NSnank7AXDACiyt_C-4" style="edgeStyle=orthogonalEdgeStyle;rounded=0;orthogonalLoop=1;jettySize=auto;html=1;fillColor=#60a917;strokeColor=#2D7600;" edge="1" parent="1" source="V-6NSnank7AXDACiyt_C-5" target="V-6NSnank7AXDACiyt_C-6">
          <mxGeometry relative="1" as="geometry" />
        </mxCell>
        <mxCell id="V-6NSnank7AXDACiyt_C-5" value="mongos/router" style="rounded=1;whiteSpace=wrap;html=1;" vertex="1" parent="1">
          <mxGeometry x="340" y="270" width="120" height="60" as="geometry" />
        </mxCell>
        <mxCell id="V-6NSnank7AXDACiyt_C-6" value="config" style="rounded=1;whiteSpace=wrap;html=1;" vertex="1" parent="1">
          <mxGeometry x="100" y="270" width="120" height="60" as="geometry" />
        </mxCell>
        <mxCell id="V-6NSnank7AXDACiyt_C-7" style="edgeStyle=orthogonalEdgeStyle;rounded=0;orthogonalLoop=1;jettySize=auto;html=1;fillColor=#1ba1e2;strokeColor=#006EAF;" edge="1" parent="1" source="V-6NSnank7AXDACiyt_C-9" target="V-6NSnank7AXDACiyt_C-11">
          <mxGeometry relative="1" as="geometry" />
        </mxCell>
        <mxCell id="V-6NSnank7AXDACiyt_C-8" style="edgeStyle=orthogonalEdgeStyle;rounded=0;orthogonalLoop=1;jettySize=auto;html=1;entryX=0.5;entryY=1;entryDx=0;entryDy=0;exitX=0.145;exitY=0;exitDx=0;exitDy=4.35;exitPerimeter=0;fillColor=#d80073;strokeColor=#A50040;" edge="1" parent="1" source="V-6NSnank7AXDACiyt_C-9" target="V-6NSnank7AXDACiyt_C-6">
          <mxGeometry relative="1" as="geometry">
            <Array as="points">
              <mxPoint x="230" y="429" />
              <mxPoint x="230" y="378" />
              <mxPoint x="160" y="378" />
            </Array>
          </mxGeometry>
        </mxCell>
        <mxCell id="V-6NSnank7AXDACiyt_C-9" value="MongoDB1 shard1&lt;br&gt;Master" style="shape=cylinder3;whiteSpace=wrap;html=1;boundedLbl=1;backgroundOutline=1;size=15;" vertex="1" parent="1">
          <mxGeometry x="220" y="425" width="90" height="110" as="geometry" />
        </mxCell>
        <mxCell id="V-6NSnank7AXDACiyt_C-10" value="MongoDB1 shard1&lt;br&gt;Slave" style="shape=cylinder3;whiteSpace=wrap;html=1;boundedLbl=1;backgroundOutline=1;size=15;" vertex="1" parent="1">
          <mxGeometry x="330" y="570" width="60" height="80" as="geometry" />
        </mxCell>
        <mxCell id="V-6NSnank7AXDACiyt_C-11" value="MongoDB1 shard1&lt;br&gt;Slave" style="shape=cylinder3;whiteSpace=wrap;html=1;boundedLbl=1;backgroundOutline=1;size=15;" vertex="1" parent="1">
          <mxGeometry x="150" y="570" width="60" height="80" as="geometry" />
        </mxCell>
        <mxCell id="V-6NSnank7AXDACiyt_C-12" value="&lt;h1 style=&quot;margin-top: 0px;&quot;&gt;Cluster 1&lt;/h1&gt;&lt;h1 style=&quot;margin-top: 0px;&quot;&gt;&lt;span style=&quot;background-color: initial; font-size: 12px; font-weight: normal;&quot;&gt;имеет 3 реплики&lt;/span&gt;&lt;/h1&gt;" style="text;html=1;whiteSpace=wrap;overflow=hidden;rounded=0;" vertex="1" parent="1">
          <mxGeometry x="40" y="420" width="180" height="120" as="geometry" />
        </mxCell>
        <mxCell id="V-6NSnank7AXDACiyt_C-13" style="edgeStyle=orthogonalEdgeStyle;rounded=0;orthogonalLoop=1;jettySize=auto;html=1;entryX=0.5;entryY=0;entryDx=0;entryDy=0;entryPerimeter=0;fillColor=#1ba1e2;strokeColor=#006EAF;" edge="1" parent="1" source="V-6NSnank7AXDACiyt_C-9" target="V-6NSnank7AXDACiyt_C-10">
          <mxGeometry relative="1" as="geometry" />
        </mxCell>
        <mxCell id="V-6NSnank7AXDACiyt_C-14" style="edgeStyle=orthogonalEdgeStyle;rounded=0;orthogonalLoop=1;jettySize=auto;html=1;entryX=0.411;entryY=1.021;entryDx=0;entryDy=0;entryPerimeter=0;fillColor=#1ba1e2;strokeColor=#006EAF;" edge="1" parent="1" source="V-6NSnank7AXDACiyt_C-11" target="V-6NSnank7AXDACiyt_C-9">
          <mxGeometry relative="1" as="geometry" />
        </mxCell>
        <mxCell id="V-6NSnank7AXDACiyt_C-15" style="edgeStyle=orthogonalEdgeStyle;rounded=0;orthogonalLoop=1;jettySize=auto;html=1;entryX=0.633;entryY=0.997;entryDx=0;entryDy=0;entryPerimeter=0;fillColor=#1ba1e2;strokeColor=#006EAF;" edge="1" parent="1" source="V-6NSnank7AXDACiyt_C-10" target="V-6NSnank7AXDACiyt_C-9">
          <mxGeometry relative="1" as="geometry" />
        </mxCell>
        <mxCell id="V-6NSnank7AXDACiyt_C-16" value="" style="rounded=0;whiteSpace=wrap;html=1;" vertex="1" parent="1">
          <mxGeometry x="490" y="385" width="430" height="295" as="geometry" />
        </mxCell>
        <mxCell id="V-6NSnank7AXDACiyt_C-17" style="edgeStyle=orthogonalEdgeStyle;rounded=0;orthogonalLoop=1;jettySize=auto;html=1;fillColor=#1ba1e2;strokeColor=#006EAF;" edge="1" parent="1" source="V-6NSnank7AXDACiyt_C-19" target="V-6NSnank7AXDACiyt_C-21">
          <mxGeometry relative="1" as="geometry" />
        </mxCell>
        <mxCell id="V-6NSnank7AXDACiyt_C-18" style="edgeStyle=orthogonalEdgeStyle;rounded=0;orthogonalLoop=1;jettySize=auto;html=1;exitX=0.145;exitY=0;exitDx=0;exitDy=4.35;exitPerimeter=0;fillColor=#d80073;strokeColor=#A50040;" edge="1" parent="1" source="V-6NSnank7AXDACiyt_C-19">
          <mxGeometry relative="1" as="geometry">
            <mxPoint x="160" y="330" as="targetPoint" />
            <Array as="points">
              <mxPoint x="693" y="350" />
              <mxPoint x="160" y="350" />
            </Array>
          </mxGeometry>
        </mxCell>
        <mxCell id="V-6NSnank7AXDACiyt_C-19" value="MongoDB2 shard2&lt;br&gt;Master" style="shape=cylinder3;whiteSpace=wrap;html=1;boundedLbl=1;backgroundOutline=1;size=15;" vertex="1" parent="1">
          <mxGeometry x="680" y="425" width="90" height="110" as="geometry" />
        </mxCell>
        <mxCell id="V-6NSnank7AXDACiyt_C-20" value="MongoDB2 shard2&lt;br&gt;Slave" style="shape=cylinder3;whiteSpace=wrap;html=1;boundedLbl=1;backgroundOutline=1;size=15;" vertex="1" parent="1">
          <mxGeometry x="790" y="570" width="60" height="80" as="geometry" />
        </mxCell>
        <mxCell id="V-6NSnank7AXDACiyt_C-21" value="MongoDB2 shard2&lt;br&gt;Slave" style="shape=cylinder3;whiteSpace=wrap;html=1;boundedLbl=1;backgroundOutline=1;size=15;" vertex="1" parent="1">
          <mxGeometry x="610" y="570" width="60" height="80" as="geometry" />
        </mxCell>
        <mxCell id="V-6NSnank7AXDACiyt_C-22" value="&lt;h1 style=&quot;margin-top: 0px;&quot;&gt;Cluster 2&lt;/h1&gt;&lt;div&gt;&lt;span style=&quot;background-color: initial;&quot;&gt;имеет 3 реплики&lt;/span&gt;&lt;br&gt;&lt;/div&gt;" style="text;html=1;whiteSpace=wrap;overflow=hidden;rounded=0;" vertex="1" parent="1">
          <mxGeometry x="500" y="420" width="180" height="120" as="geometry" />
        </mxCell>
        <mxCell id="V-6NSnank7AXDACiyt_C-23" style="edgeStyle=orthogonalEdgeStyle;rounded=0;orthogonalLoop=1;jettySize=auto;html=1;entryX=0.5;entryY=0;entryDx=0;entryDy=0;entryPerimeter=0;fillColor=#1ba1e2;strokeColor=#006EAF;" edge="1" parent="1" source="V-6NSnank7AXDACiyt_C-19" target="V-6NSnank7AXDACiyt_C-20">
          <mxGeometry relative="1" as="geometry" />
        </mxCell>
        <mxCell id="V-6NSnank7AXDACiyt_C-24" style="edgeStyle=orthogonalEdgeStyle;rounded=0;orthogonalLoop=1;jettySize=auto;html=1;entryX=0.411;entryY=1.021;entryDx=0;entryDy=0;entryPerimeter=0;fillColor=#1ba1e2;strokeColor=#006EAF;" edge="1" parent="1" source="V-6NSnank7AXDACiyt_C-21" target="V-6NSnank7AXDACiyt_C-19">
          <mxGeometry relative="1" as="geometry" />
        </mxCell>
        <mxCell id="V-6NSnank7AXDACiyt_C-25" style="edgeStyle=orthogonalEdgeStyle;rounded=0;orthogonalLoop=1;jettySize=auto;html=1;entryX=0.633;entryY=0.997;entryDx=0;entryDy=0;entryPerimeter=0;fillColor=#1ba1e2;strokeColor=#006EAF;" edge="1" parent="1" source="V-6NSnank7AXDACiyt_C-20" target="V-6NSnank7AXDACiyt_C-19">
          <mxGeometry relative="1" as="geometry" />
        </mxCell>
        <mxCell id="V-6NSnank7AXDACiyt_C-26" style="edgeStyle=orthogonalEdgeStyle;rounded=0;orthogonalLoop=1;jettySize=auto;html=1;entryX=0.5;entryY=0;entryDx=0;entryDy=0;entryPerimeter=0;fillColor=#60a917;strokeColor=#2D7600;" edge="1" parent="1" source="V-6NSnank7AXDACiyt_C-5" target="V-6NSnank7AXDACiyt_C-9">
          <mxGeometry relative="1" as="geometry" />
        </mxCell>
        <mxCell id="V-6NSnank7AXDACiyt_C-27" style="edgeStyle=orthogonalEdgeStyle;rounded=0;orthogonalLoop=1;jettySize=auto;html=1;entryX=1;entryY=0;entryDx=0;entryDy=35;entryPerimeter=0;fillColor=#60a917;strokeColor=#2D7600;" edge="1" parent="1" source="V-6NSnank7AXDACiyt_C-5" target="V-6NSnank7AXDACiyt_C-9">
          <mxGeometry relative="1" as="geometry">
            <Array as="points">
              <mxPoint x="380" y="460" />
            </Array>
          </mxGeometry>
        </mxCell>
        <mxCell id="V-6NSnank7AXDACiyt_C-28" style="edgeStyle=orthogonalEdgeStyle;rounded=0;orthogonalLoop=1;jettySize=auto;html=1;entryX=0;entryY=0;entryDx=0;entryDy=35;entryPerimeter=0;fillColor=#60a917;strokeColor=#2D7600;" edge="1" parent="1" source="V-6NSnank7AXDACiyt_C-5" target="V-6NSnank7AXDACiyt_C-19">
          <mxGeometry relative="1" as="geometry">
            <Array as="points">
              <mxPoint x="440" y="460" />
            </Array>
          </mxGeometry>
        </mxCell>
        <mxCell id="V-6NSnank7AXDACiyt_C-29" value="Reiis Cache&lt;div&gt;&lt;br&gt;&lt;/div&gt;" style="shape=cylinder3;whiteSpace=wrap;html=1;boundedLbl=1;backgroundOutline=1;size=15;" vertex="1" parent="1">
          <mxGeometry x="480" y="130" width="90" height="110" as="geometry" />
        </mxCell>
        <mxCell id="V-6NSnank7AXDACiyt_C-31" value="Запрос данных&lt;div&gt;Если данные есть в кеше&amp;nbsp; - возвращаем их&lt;/div&gt;&lt;div&gt;&lt;br&gt;&lt;/div&gt;&lt;div&gt;если данных в кеше нет - то запрашиваем из mongo кластера&lt;/div&gt;&lt;div&gt;&lt;br&gt;&lt;/div&gt;&lt;div&gt;после получения из mongo-кластера - записываем в кеш обновленные данные&lt;/div&gt;" style="shape=note;whiteSpace=wrap;html=1;backgroundOutline=1;darkOpacity=0.05;align=left;" vertex="1" parent="1">
          <mxGeometry x="580" y="60" width="230" height="190" as="geometry" />
        </mxCell>
        <mxCell id="V-6NSnank7AXDACiyt_C-32" value="Возможна реализация с актуализацией кеша через etl процесс из mongodb ( предзаполнение и инициализация горячего кеша)&lt;div&gt;&lt;br&gt;&lt;/div&gt;&lt;div&gt;Возможна реализация redis кластера с репликацией (gossip протокол)&lt;/div&gt;" style="shape=note;whiteSpace=wrap;html=1;backgroundOutline=1;darkOpacity=0.05;align=left;" vertex="1" parent="1">
          <mxGeometry x="827" y="60" width="230" height="190" as="geometry" />
        </mxCell>
        <mxCell id="V-6NSnank7AXDACiyt_C-34" value="pymongo-api" style="rounded=1;whiteSpace=wrap;html=1;" vertex="1" parent="1">
          <mxGeometry x="190" y="-30" width="120" height="60" as="geometry" />
        </mxCell>
        <mxCell id="V-6NSnank7AXDACiyt_C-44" style="edgeStyle=orthogonalEdgeStyle;rounded=0;orthogonalLoop=1;jettySize=auto;html=1;entryX=0.5;entryY=0;entryDx=0;entryDy=0;" edge="1" parent="1" source="V-6NSnank7AXDACiyt_C-36" target="V-6NSnank7AXDACiyt_C-39">
          <mxGeometry relative="1" as="geometry" />
        </mxCell>
        <mxCell id="V-6NSnank7AXDACiyt_C-36" value="Nginx" style="rounded=1;whiteSpace=wrap;html=1;" vertex="1" parent="1">
          <mxGeometry x="210" y="-475" width="190" height="70" as="geometry" />
        </mxCell>
        <mxCell id="V-6NSnank7AXDACiyt_C-37" value="Actor" style="shape=umlActor;verticalLabelPosition=bottom;verticalAlign=top;html=1;" vertex="1" parent="1">
          <mxGeometry x="130" y="-490" width="30" height="60" as="geometry" />
        </mxCell>
        <mxCell id="V-6NSnank7AXDACiyt_C-38" style="edgeStyle=orthogonalEdgeStyle;rounded=0;orthogonalLoop=1;jettySize=auto;html=1;entryX=0.25;entryY=0.231;entryDx=0;entryDy=0;entryPerimeter=0;" edge="1" parent="1" source="V-6NSnank7AXDACiyt_C-37" target="V-6NSnank7AXDACiyt_C-36">
          <mxGeometry relative="1" as="geometry" />
        </mxCell>
        <mxCell id="V-6NSnank7AXDACiyt_C-39" value="APISIX Gateway" style="rounded=1;whiteSpace=wrap;html=1;" vertex="1" parent="1">
          <mxGeometry x="90" y="-330" width="220" height="100" as="geometry" />
        </mxCell>
        <mxCell id="V-6NSnank7AXDACiyt_C-42" style="edgeStyle=orthogonalEdgeStyle;rounded=0;orthogonalLoop=1;jettySize=auto;html=1;exitX=1;exitY=0.5;exitDx=0;exitDy=0;entryX=0;entryY=0.5;entryDx=0;entryDy=0;" edge="1" parent="1" source="V-6NSnank7AXDACiyt_C-40" target="V-6NSnank7AXDACiyt_C-41">
          <mxGeometry relative="1" as="geometry" />
        </mxCell>
        <mxCell id="V-6NSnank7AXDACiyt_C-43" value="список сервисов" style="edgeLabel;html=1;align=center;verticalAlign=middle;resizable=0;points=[];" vertex="1" connectable="0" parent="V-6NSnank7AXDACiyt_C-42">
          <mxGeometry x="0.0409" relative="1" as="geometry">
            <mxPoint as="offset" />
          </mxGeometry>
        </mxCell>
        <mxCell id="V-6NSnank7AXDACiyt_C-40" value="consul_kv" style="rounded=1;whiteSpace=wrap;html=1;" vertex="1" parent="1">
          <mxGeometry x="274" y="-310" width="140" height="60" as="geometry" />
        </mxCell>
        <mxCell id="V-6NSnank7AXDACiyt_C-41" value="Consul" style="rounded=1;whiteSpace=wrap;html=1;" vertex="1" parent="1">
          <mxGeometry x="585" y="-330" width="220" height="100" as="geometry" />
        </mxCell>
        <mxCell id="V-6NSnank7AXDACiyt_C-45" style="edgeStyle=orthogonalEdgeStyle;rounded=0;orthogonalLoop=1;jettySize=auto;html=1;entryX=0.533;entryY=0.024;entryDx=0;entryDy=0;entryPerimeter=0;" edge="1" parent="1" source="V-6NSnank7AXDACiyt_C-39" target="V-6NSnank7AXDACiyt_C-35">
          <mxGeometry relative="1" as="geometry" />
        </mxCell>
        <mxCell id="V-6NSnank7AXDACiyt_C-46" value="Выбор ноды приложения" style="edgeLabel;html=1;align=center;verticalAlign=middle;resizable=0;points=[];" vertex="1" connectable="0" parent="V-6NSnank7AXDACiyt_C-45">
          <mxGeometry x="0.0099" y="-5" relative="1" as="geometry">
            <mxPoint as="offset" />
          </mxGeometry>
        </mxCell>
        <mxCell id="V-6NSnank7AXDACiyt_C-50" style="edgeStyle=orthogonalEdgeStyle;rounded=0;orthogonalLoop=1;jettySize=auto;html=1;entryX=0.5;entryY=0;entryDx=0;entryDy=0;entryPerimeter=0;startArrow=classic;startFill=1;" edge="1" parent="1" source="V-6NSnank7AXDACiyt_C-35" target="V-6NSnank7AXDACiyt_C-29">
          <mxGeometry relative="1" as="geometry">
            <Array as="points">
              <mxPoint x="360" y="103" />
              <mxPoint x="525" y="103" />
            </Array>
          </mxGeometry>
        </mxCell>
      </root>
    </mxGraphModel>
  </diagram>
  <diagram id="hvtNcPatI8u9uVm5OpOD" name="Задание 6. CDN">
    <mxGraphModel dx="1104" dy="1980" grid="1" gridSize="10" guides="1" tooltips="1" connect="1" arrows="1" fold="1" page="1" pageScale="1" pageWidth="827" pageHeight="1169" math="0" shadow="0">
      <root>
        <mxCell id="0" />
        <mxCell id="1" parent="0" />
        <mxCell id="Ii7yxbaap6O5Z8548LuL-52" value="" style="rounded=0;whiteSpace=wrap;html=1;" vertex="1" parent="1">
          <mxGeometry x="670" y="-640" width="430" height="295" as="geometry" />
        </mxCell>
        <mxCell id="Ii7yxbaap6O5Z8548LuL-53" value="&lt;h1 style=&quot;margin-top: 0px;&quot;&gt;&lt;span style=&quot;background-color: initial;&quot;&gt;CDN провайдер&lt;/span&gt;&lt;/h1&gt;&lt;h1 style=&quot;margin-top: 0px;&quot;&gt;&lt;span style=&quot;font-size: 12px; font-weight: 400;&quot;&gt;В зависимости от гео пользователя статичный контент отдается из необходий локации провайдера cdn&lt;/span&gt;&lt;br&gt;&lt;/h1&gt;" style="text;html=1;whiteSpace=wrap;overflow=hidden;rounded=0;" vertex="1" parent="1">
          <mxGeometry x="680" y="-605" width="180" height="235" as="geometry" />
        </mxCell>
        <mxCell id="Ii7yxbaap6O5Z8548LuL-1" style="edgeStyle=orthogonalEdgeStyle;rounded=0;orthogonalLoop=1;jettySize=auto;html=1;entryX=0.5;entryY=1;entryDx=0;entryDy=0;" edge="1" parent="1" source="Ii7yxbaap6O5Z8548LuL-3" target="Ii7yxbaap6O5Z8548LuL-44">
          <mxGeometry relative="1" as="geometry" />
        </mxCell>
        <mxCell id="Ii7yxbaap6O5Z8548LuL-2" value="регистрация сервисов" style="edgeLabel;html=1;align=center;verticalAlign=middle;resizable=0;points=[];" vertex="1" connectable="0" parent="Ii7yxbaap6O5Z8548LuL-1">
          <mxGeometry x="-0.5086" relative="1" as="geometry">
            <mxPoint as="offset" />
          </mxGeometry>
        </mxCell>
        <mxCell id="Ii7yxbaap6O5Z8548LuL-3" value="" style="rounded=0;whiteSpace=wrap;html=1;" vertex="1" parent="1">
          <mxGeometry x="140" y="-70" width="380" height="145" as="geometry" />
        </mxCell>
        <mxCell id="Ii7yxbaap6O5Z8548LuL-4" value="" style="rounded=0;whiteSpace=wrap;html=1;" vertex="1" parent="1">
          <mxGeometry x="30" y="385" width="430" height="295" as="geometry" />
        </mxCell>
        <mxCell id="Ii7yxbaap6O5Z8548LuL-5" value="" style="edgeStyle=orthogonalEdgeStyle;rounded=0;orthogonalLoop=1;jettySize=auto;html=1;exitX=0.475;exitY=0.997;exitDx=0;exitDy=0;exitPerimeter=0;" edge="1" parent="1" source="Ii7yxbaap6O5Z8548LuL-3" target="Ii7yxbaap6O5Z8548LuL-8">
          <mxGeometry relative="1" as="geometry" />
        </mxCell>
        <mxCell id="Ii7yxbaap6O5Z8548LuL-6" value="pymongo-api" style="rounded=1;whiteSpace=wrap;html=1;" vertex="1" parent="1">
          <mxGeometry x="340" y="-30" width="120" height="60" as="geometry" />
        </mxCell>
        <mxCell id="Ii7yxbaap6O5Z8548LuL-7" style="edgeStyle=orthogonalEdgeStyle;rounded=0;orthogonalLoop=1;jettySize=auto;html=1;fillColor=#60a917;strokeColor=#2D7600;" edge="1" parent="1" source="Ii7yxbaap6O5Z8548LuL-8" target="Ii7yxbaap6O5Z8548LuL-9">
          <mxGeometry relative="1" as="geometry" />
        </mxCell>
        <mxCell id="Ii7yxbaap6O5Z8548LuL-8" value="mongos/router" style="rounded=1;whiteSpace=wrap;html=1;" vertex="1" parent="1">
          <mxGeometry x="340" y="270" width="120" height="60" as="geometry" />
        </mxCell>
        <mxCell id="Ii7yxbaap6O5Z8548LuL-9" value="config" style="rounded=1;whiteSpace=wrap;html=1;" vertex="1" parent="1">
          <mxGeometry x="100" y="270" width="120" height="60" as="geometry" />
        </mxCell>
        <mxCell id="Ii7yxbaap6O5Z8548LuL-10" style="edgeStyle=orthogonalEdgeStyle;rounded=0;orthogonalLoop=1;jettySize=auto;html=1;fillColor=#1ba1e2;strokeColor=#006EAF;" edge="1" parent="1" source="Ii7yxbaap6O5Z8548LuL-12" target="Ii7yxbaap6O5Z8548LuL-14">
          <mxGeometry relative="1" as="geometry" />
        </mxCell>
        <mxCell id="Ii7yxbaap6O5Z8548LuL-11" style="edgeStyle=orthogonalEdgeStyle;rounded=0;orthogonalLoop=1;jettySize=auto;html=1;entryX=0.5;entryY=1;entryDx=0;entryDy=0;exitX=0.145;exitY=0;exitDx=0;exitDy=4.35;exitPerimeter=0;fillColor=#d80073;strokeColor=#A50040;" edge="1" parent="1" source="Ii7yxbaap6O5Z8548LuL-12" target="Ii7yxbaap6O5Z8548LuL-9">
          <mxGeometry relative="1" as="geometry">
            <Array as="points">
              <mxPoint x="230" y="429" />
              <mxPoint x="230" y="378" />
              <mxPoint x="160" y="378" />
            </Array>
          </mxGeometry>
        </mxCell>
        <mxCell id="Ii7yxbaap6O5Z8548LuL-12" value="MongoDB1 shard1&lt;br&gt;Master" style="shape=cylinder3;whiteSpace=wrap;html=1;boundedLbl=1;backgroundOutline=1;size=15;" vertex="1" parent="1">
          <mxGeometry x="220" y="425" width="90" height="110" as="geometry" />
        </mxCell>
        <mxCell id="Ii7yxbaap6O5Z8548LuL-13" value="MongoDB1 shard1&lt;br&gt;Slave" style="shape=cylinder3;whiteSpace=wrap;html=1;boundedLbl=1;backgroundOutline=1;size=15;" vertex="1" parent="1">
          <mxGeometry x="330" y="570" width="60" height="80" as="geometry" />
        </mxCell>
        <mxCell id="Ii7yxbaap6O5Z8548LuL-14" value="MongoDB1 shard1&lt;br&gt;Slave" style="shape=cylinder3;whiteSpace=wrap;html=1;boundedLbl=1;backgroundOutline=1;size=15;" vertex="1" parent="1">
          <mxGeometry x="150" y="570" width="60" height="80" as="geometry" />
        </mxCell>
        <mxCell id="Ii7yxbaap6O5Z8548LuL-15" value="&lt;h1 style=&quot;margin-top: 0px;&quot;&gt;Cluster 1&lt;/h1&gt;&lt;h1 style=&quot;margin-top: 0px;&quot;&gt;&lt;span style=&quot;background-color: initial; font-size: 12px; font-weight: normal;&quot;&gt;имеет 3 реплики&lt;/span&gt;&lt;/h1&gt;" style="text;html=1;whiteSpace=wrap;overflow=hidden;rounded=0;" vertex="1" parent="1">
          <mxGeometry x="40" y="420" width="180" height="120" as="geometry" />
        </mxCell>
        <mxCell id="Ii7yxbaap6O5Z8548LuL-16" style="edgeStyle=orthogonalEdgeStyle;rounded=0;orthogonalLoop=1;jettySize=auto;html=1;entryX=0.5;entryY=0;entryDx=0;entryDy=0;entryPerimeter=0;fillColor=#1ba1e2;strokeColor=#006EAF;" edge="1" parent="1" source="Ii7yxbaap6O5Z8548LuL-12" target="Ii7yxbaap6O5Z8548LuL-13">
          <mxGeometry relative="1" as="geometry" />
        </mxCell>
        <mxCell id="Ii7yxbaap6O5Z8548LuL-17" style="edgeStyle=orthogonalEdgeStyle;rounded=0;orthogonalLoop=1;jettySize=auto;html=1;entryX=0.411;entryY=1.021;entryDx=0;entryDy=0;entryPerimeter=0;fillColor=#1ba1e2;strokeColor=#006EAF;" edge="1" parent="1" source="Ii7yxbaap6O5Z8548LuL-14" target="Ii7yxbaap6O5Z8548LuL-12">
          <mxGeometry relative="1" as="geometry" />
        </mxCell>
        <mxCell id="Ii7yxbaap6O5Z8548LuL-18" style="edgeStyle=orthogonalEdgeStyle;rounded=0;orthogonalLoop=1;jettySize=auto;html=1;entryX=0.633;entryY=0.997;entryDx=0;entryDy=0;entryPerimeter=0;fillColor=#1ba1e2;strokeColor=#006EAF;" edge="1" parent="1" source="Ii7yxbaap6O5Z8548LuL-13" target="Ii7yxbaap6O5Z8548LuL-12">
          <mxGeometry relative="1" as="geometry" />
        </mxCell>
        <mxCell id="Ii7yxbaap6O5Z8548LuL-19" value="" style="rounded=0;whiteSpace=wrap;html=1;" vertex="1" parent="1">
          <mxGeometry x="490" y="385" width="430" height="295" as="geometry" />
        </mxCell>
        <mxCell id="Ii7yxbaap6O5Z8548LuL-20" style="edgeStyle=orthogonalEdgeStyle;rounded=0;orthogonalLoop=1;jettySize=auto;html=1;fillColor=#1ba1e2;strokeColor=#006EAF;" edge="1" parent="1" source="Ii7yxbaap6O5Z8548LuL-22" target="Ii7yxbaap6O5Z8548LuL-24">
          <mxGeometry relative="1" as="geometry" />
        </mxCell>
        <mxCell id="Ii7yxbaap6O5Z8548LuL-21" style="edgeStyle=orthogonalEdgeStyle;rounded=0;orthogonalLoop=1;jettySize=auto;html=1;exitX=0.145;exitY=0;exitDx=0;exitDy=4.35;exitPerimeter=0;fillColor=#d80073;strokeColor=#A50040;" edge="1" parent="1" source="Ii7yxbaap6O5Z8548LuL-22">
          <mxGeometry relative="1" as="geometry">
            <mxPoint x="160" y="330" as="targetPoint" />
            <Array as="points">
              <mxPoint x="693" y="350" />
              <mxPoint x="160" y="350" />
            </Array>
          </mxGeometry>
        </mxCell>
        <mxCell id="Ii7yxbaap6O5Z8548LuL-22" value="MongoDB2 shard2&lt;br&gt;Master" style="shape=cylinder3;whiteSpace=wrap;html=1;boundedLbl=1;backgroundOutline=1;size=15;" vertex="1" parent="1">
          <mxGeometry x="680" y="425" width="90" height="110" as="geometry" />
        </mxCell>
        <mxCell id="Ii7yxbaap6O5Z8548LuL-23" value="MongoDB2 shard2&lt;br&gt;Slave" style="shape=cylinder3;whiteSpace=wrap;html=1;boundedLbl=1;backgroundOutline=1;size=15;" vertex="1" parent="1">
          <mxGeometry x="790" y="570" width="60" height="80" as="geometry" />
        </mxCell>
        <mxCell id="Ii7yxbaap6O5Z8548LuL-24" value="MongoDB2 shard2&lt;br&gt;Slave" style="shape=cylinder3;whiteSpace=wrap;html=1;boundedLbl=1;backgroundOutline=1;size=15;" vertex="1" parent="1">
          <mxGeometry x="610" y="570" width="60" height="80" as="geometry" />
        </mxCell>
        <mxCell id="Ii7yxbaap6O5Z8548LuL-25" value="&lt;h1 style=&quot;margin-top: 0px;&quot;&gt;Cluster 2&lt;/h1&gt;&lt;div&gt;&lt;span style=&quot;background-color: initial;&quot;&gt;имеет 3 реплики&lt;/span&gt;&lt;br&gt;&lt;/div&gt;" style="text;html=1;whiteSpace=wrap;overflow=hidden;rounded=0;" vertex="1" parent="1">
          <mxGeometry x="500" y="420" width="180" height="120" as="geometry" />
        </mxCell>
        <mxCell id="Ii7yxbaap6O5Z8548LuL-26" style="edgeStyle=orthogonalEdgeStyle;rounded=0;orthogonalLoop=1;jettySize=auto;html=1;entryX=0.5;entryY=0;entryDx=0;entryDy=0;entryPerimeter=0;fillColor=#1ba1e2;strokeColor=#006EAF;" edge="1" parent="1" source="Ii7yxbaap6O5Z8548LuL-22" target="Ii7yxbaap6O5Z8548LuL-23">
          <mxGeometry relative="1" as="geometry" />
        </mxCell>
        <mxCell id="Ii7yxbaap6O5Z8548LuL-27" style="edgeStyle=orthogonalEdgeStyle;rounded=0;orthogonalLoop=1;jettySize=auto;html=1;entryX=0.411;entryY=1.021;entryDx=0;entryDy=0;entryPerimeter=0;fillColor=#1ba1e2;strokeColor=#006EAF;" edge="1" parent="1" source="Ii7yxbaap6O5Z8548LuL-24" target="Ii7yxbaap6O5Z8548LuL-22">
          <mxGeometry relative="1" as="geometry" />
        </mxCell>
        <mxCell id="Ii7yxbaap6O5Z8548LuL-28" style="edgeStyle=orthogonalEdgeStyle;rounded=0;orthogonalLoop=1;jettySize=auto;html=1;entryX=0.633;entryY=0.997;entryDx=0;entryDy=0;entryPerimeter=0;fillColor=#1ba1e2;strokeColor=#006EAF;" edge="1" parent="1" source="Ii7yxbaap6O5Z8548LuL-23" target="Ii7yxbaap6O5Z8548LuL-22">
          <mxGeometry relative="1" as="geometry" />
        </mxCell>
        <mxCell id="Ii7yxbaap6O5Z8548LuL-29" style="edgeStyle=orthogonalEdgeStyle;rounded=0;orthogonalLoop=1;jettySize=auto;html=1;entryX=0.5;entryY=0;entryDx=0;entryDy=0;entryPerimeter=0;fillColor=#60a917;strokeColor=#2D7600;" edge="1" parent="1" source="Ii7yxbaap6O5Z8548LuL-8" target="Ii7yxbaap6O5Z8548LuL-12">
          <mxGeometry relative="1" as="geometry" />
        </mxCell>
        <mxCell id="Ii7yxbaap6O5Z8548LuL-30" style="edgeStyle=orthogonalEdgeStyle;rounded=0;orthogonalLoop=1;jettySize=auto;html=1;entryX=1;entryY=0;entryDx=0;entryDy=35;entryPerimeter=0;fillColor=#60a917;strokeColor=#2D7600;" edge="1" parent="1" source="Ii7yxbaap6O5Z8548LuL-8" target="Ii7yxbaap6O5Z8548LuL-12">
          <mxGeometry relative="1" as="geometry">
            <Array as="points">
              <mxPoint x="380" y="460" />
            </Array>
          </mxGeometry>
        </mxCell>
        <mxCell id="Ii7yxbaap6O5Z8548LuL-31" style="edgeStyle=orthogonalEdgeStyle;rounded=0;orthogonalLoop=1;jettySize=auto;html=1;entryX=0;entryY=0;entryDx=0;entryDy=35;entryPerimeter=0;fillColor=#60a917;strokeColor=#2D7600;" edge="1" parent="1" source="Ii7yxbaap6O5Z8548LuL-8" target="Ii7yxbaap6O5Z8548LuL-22">
          <mxGeometry relative="1" as="geometry">
            <Array as="points">
              <mxPoint x="440" y="460" />
            </Array>
          </mxGeometry>
        </mxCell>
        <mxCell id="Ii7yxbaap6O5Z8548LuL-32" value="Reiis Cache&lt;div&gt;&lt;br&gt;&lt;/div&gt;" style="shape=cylinder3;whiteSpace=wrap;html=1;boundedLbl=1;backgroundOutline=1;size=15;" vertex="1" parent="1">
          <mxGeometry x="480" y="130" width="90" height="110" as="geometry" />
        </mxCell>
        <mxCell id="Ii7yxbaap6O5Z8548LuL-33" value="Запрос данных&lt;div&gt;Если данные есть в кеше&amp;nbsp; - возвращаем их&lt;/div&gt;&lt;div&gt;&lt;br&gt;&lt;/div&gt;&lt;div&gt;если данных в кеше нет - то запрашиваем из mongo кластера&lt;/div&gt;&lt;div&gt;&lt;br&gt;&lt;/div&gt;&lt;div&gt;после получения из mongo-кластера - записываем в кеш обновленные данные&lt;/div&gt;" style="shape=note;whiteSpace=wrap;html=1;backgroundOutline=1;darkOpacity=0.05;align=left;" vertex="1" parent="1">
          <mxGeometry x="580" y="60" width="230" height="190" as="geometry" />
        </mxCell>
        <mxCell id="Ii7yxbaap6O5Z8548LuL-34" value="Возможна реализация с актуализацией кеша через etl процесс из mongodb ( предзаполнение и инициализация горячего кеша)&lt;div&gt;&lt;br&gt;&lt;/div&gt;&lt;div&gt;Возможна реализация redis кластера с репликацией (gossip протокол)&lt;/div&gt;" style="shape=note;whiteSpace=wrap;html=1;backgroundOutline=1;darkOpacity=0.05;align=left;" vertex="1" parent="1">
          <mxGeometry x="827" y="60" width="230" height="190" as="geometry" />
        </mxCell>
        <mxCell id="Ii7yxbaap6O5Z8548LuL-35" value="pymongo-api" style="rounded=1;whiteSpace=wrap;html=1;" vertex="1" parent="1">
          <mxGeometry x="190" y="-30" width="120" height="60" as="geometry" />
        </mxCell>
        <mxCell id="Ii7yxbaap6O5Z8548LuL-36" style="edgeStyle=orthogonalEdgeStyle;rounded=0;orthogonalLoop=1;jettySize=auto;html=1;entryX=0.5;entryY=0;entryDx=0;entryDy=0;" edge="1" parent="1" source="Ii7yxbaap6O5Z8548LuL-37" target="Ii7yxbaap6O5Z8548LuL-40">
          <mxGeometry relative="1" as="geometry" />
        </mxCell>
        <mxCell id="Ii7yxbaap6O5Z8548LuL-51" style="edgeStyle=orthogonalEdgeStyle;rounded=0;orthogonalLoop=1;jettySize=auto;html=1;entryX=0.005;entryY=0.586;entryDx=0;entryDy=0;entryPerimeter=0;" edge="1" parent="1" source="Ii7yxbaap6O5Z8548LuL-37" target="Ii7yxbaap6O5Z8548LuL-52">
          <mxGeometry relative="1" as="geometry">
            <mxPoint x="660" y="-470" as="targetPoint" />
          </mxGeometry>
        </mxCell>
        <mxCell id="Ii7yxbaap6O5Z8548LuL-55" value="получение контента / статиики" style="edgeLabel;html=1;align=center;verticalAlign=middle;resizable=0;points=[];" vertex="1" connectable="0" parent="Ii7yxbaap6O5Z8548LuL-51">
          <mxGeometry x="-0.4698" relative="1" as="geometry">
            <mxPoint x="46" as="offset" />
          </mxGeometry>
        </mxCell>
        <mxCell id="Ii7yxbaap6O5Z8548LuL-37" value="Nginx" style="rounded=1;whiteSpace=wrap;html=1;" vertex="1" parent="1">
          <mxGeometry x="210" y="-475" width="190" height="70" as="geometry" />
        </mxCell>
        <mxCell id="Ii7yxbaap6O5Z8548LuL-38" value="Actor" style="shape=umlActor;verticalLabelPosition=bottom;verticalAlign=top;html=1;" vertex="1" parent="1">
          <mxGeometry x="130" y="-490" width="30" height="60" as="geometry" />
        </mxCell>
        <mxCell id="Ii7yxbaap6O5Z8548LuL-39" style="edgeStyle=orthogonalEdgeStyle;rounded=0;orthogonalLoop=1;jettySize=auto;html=1;entryX=0.25;entryY=0.231;entryDx=0;entryDy=0;entryPerimeter=0;" edge="1" parent="1" source="Ii7yxbaap6O5Z8548LuL-38" target="Ii7yxbaap6O5Z8548LuL-37">
          <mxGeometry relative="1" as="geometry" />
        </mxCell>
        <mxCell id="Ii7yxbaap6O5Z8548LuL-40" value="APISIX Gateway" style="rounded=1;whiteSpace=wrap;html=1;" vertex="1" parent="1">
          <mxGeometry x="90" y="-330" width="220" height="100" as="geometry" />
        </mxCell>
        <mxCell id="Ii7yxbaap6O5Z8548LuL-41" style="edgeStyle=orthogonalEdgeStyle;rounded=0;orthogonalLoop=1;jettySize=auto;html=1;exitX=1;exitY=0.5;exitDx=0;exitDy=0;entryX=0;entryY=0.5;entryDx=0;entryDy=0;" edge="1" parent="1" source="Ii7yxbaap6O5Z8548LuL-43" target="Ii7yxbaap6O5Z8548LuL-44">
          <mxGeometry relative="1" as="geometry" />
        </mxCell>
        <mxCell id="Ii7yxbaap6O5Z8548LuL-42" value="список сервисов" style="edgeLabel;html=1;align=center;verticalAlign=middle;resizable=0;points=[];" vertex="1" connectable="0" parent="Ii7yxbaap6O5Z8548LuL-41">
          <mxGeometry x="0.0409" relative="1" as="geometry">
            <mxPoint as="offset" />
          </mxGeometry>
        </mxCell>
        <mxCell id="Ii7yxbaap6O5Z8548LuL-43" value="consul_kv" style="rounded=1;whiteSpace=wrap;html=1;" vertex="1" parent="1">
          <mxGeometry x="274" y="-310" width="140" height="60" as="geometry" />
        </mxCell>
        <mxCell id="Ii7yxbaap6O5Z8548LuL-44" value="Consul" style="rounded=1;whiteSpace=wrap;html=1;" vertex="1" parent="1">
          <mxGeometry x="585" y="-330" width="220" height="100" as="geometry" />
        </mxCell>
        <mxCell id="Ii7yxbaap6O5Z8548LuL-45" style="edgeStyle=orthogonalEdgeStyle;rounded=0;orthogonalLoop=1;jettySize=auto;html=1;entryX=0.533;entryY=0.024;entryDx=0;entryDy=0;entryPerimeter=0;" edge="1" parent="1" source="Ii7yxbaap6O5Z8548LuL-40" target="Ii7yxbaap6O5Z8548LuL-3">
          <mxGeometry relative="1" as="geometry" />
        </mxCell>
        <mxCell id="Ii7yxbaap6O5Z8548LuL-46" value="Выбор ноды приложения" style="edgeLabel;html=1;align=center;verticalAlign=middle;resizable=0;points=[];" vertex="1" connectable="0" parent="Ii7yxbaap6O5Z8548LuL-45">
          <mxGeometry x="0.0099" y="-5" relative="1" as="geometry">
            <mxPoint as="offset" />
          </mxGeometry>
        </mxCell>
        <mxCell id="Ii7yxbaap6O5Z8548LuL-47" style="edgeStyle=orthogonalEdgeStyle;rounded=0;orthogonalLoop=1;jettySize=auto;html=1;entryX=0.5;entryY=0;entryDx=0;entryDy=0;entryPerimeter=0;startArrow=classic;startFill=1;" edge="1" parent="1" source="Ii7yxbaap6O5Z8548LuL-3" target="Ii7yxbaap6O5Z8548LuL-32">
          <mxGeometry relative="1" as="geometry">
            <Array as="points">
              <mxPoint x="360" y="103" />
              <mxPoint x="525" y="103" />
            </Array>
          </mxGeometry>
        </mxCell>
        <mxCell id="Ii7yxbaap6O5Z8548LuL-48" value="CDN1" style="rounded=1;whiteSpace=wrap;html=1;" vertex="1" parent="1">
          <mxGeometry x="867" y="-550" width="190" height="70" as="geometry" />
        </mxCell>
        <mxCell id="Ii7yxbaap6O5Z8548LuL-49" value="CDN2" style="rounded=1;whiteSpace=wrap;html=1;" vertex="1" parent="1">
          <mxGeometry x="870" y="-455" width="190" height="70" as="geometry" />
        </mxCell>
      </root>
    </mxGraphModel>
  </diagram>
</mxfile>
